<svg id="svg" fill="#000000" stroke="#000000" width="200px" height="200px" version="1.1" viewBox="144 144 512 512" xmlns="http://www.w3.org/2000/svg">
    <g id="IconSvg_bgCarrier" stroke-width="0"></g>
    <g id="IconSvg_tracerCarrier" stroke-linecap="round" stroke-linejoin="round" stroke="#CCCCCC"></g>
     <g id="IconSvg_iconCarrier">
      <path xmlns="http://www.w3.org/2000/svg" d="m596.58 503.28h-15.113v-86.277c0-2.7852-2.2539-5.0391-5.0391-5.0391h-51.812v-100.04h9.6641c2.7852 0 5.0391-2.2539 5.0391-5.0391l-0.003906-45.434c0-2.7852-2.2539-5.0391-5.0391-5.0391h-16.551c8.582-8.9375 14.352-21.785 11.742-33.484-2.4805-11.152-13.004-24.449-49.043-24.449-29.824 0-57.07 11.52-72.195 30.25-2.9609-0.99219-6.1094-1.5391-9.3789-1.5391-2.5664 0-5.0469 0.36719-7.4336 0.98828-15.219-18.352-42.441-29.699-71.656-29.699-36.008 0-46.543 13.32-49.039 24.492-2.6055 11.66 3.0664 24.477 11.562 33.445h-16.375c-2.7852 0-5.0391 2.2539-5.0391 5.0391v45.43c0 2.7852 2.2539 5.0391 5.0391 5.0391h10.742l-0.003907 100.04h-52.887c-2.7852 0-5.0391 2.2539-5.0391 5.0391v86.277h-15.113c-2.7852 0-5.0391 2.2539-5.0391 5.0391v88.164c0 2.7852 2.2539 5.0391 5.0391 5.0391h392.97c2.7852 0 5.0391-2.2539 5.0391-5.0391v-88.168c0-2.7852-2.2539-5.0352-5.0391-5.0352zm-25.191 0h-24.867v-81.242h24.867zm-286.47-81.242v81.242h-21.363v-81.242zm10.078 0h21.367v81.242h-21.367zm31.441 0h21.363v81.242h-21.363zm94.312-155.55v35.355h-41.312v-35.355zm0 45.434v100.04h-41.312v-100.04zm0.011718 191.36v-81.242h21.367v81.242zm-10.078-81.242v81.242h-21.363v-81.242zm-31.438 0v81.242h-21.367v-81.242zm62.098 91.316v78.09h-82.5l0.003906-78.09zm10.859-91.316h21.363v81.242h-21.363zm31.441 0h21.367v81.242h-21.367zm31.441 0h21.363v81.242h-21.363zm-0.54688-10.074h-83.711v-100.04h83.711zm14.703-110.12h-98.414v-35.355h98.414zm-48.816-93.293c22.906 0 36.836 5.8828 39.211 16.566 2.5195 11.301-7.9062 26.234-18.215 31.066-0.12109 0.054687-0.19531 0.16406-0.3125 0.23047h-71.664c-0.78125-9.3086-5.4023-17.469-12.195-22.785 13.457-15.566 37.121-25.078 63.176-25.078zm-61.188 47.863h-40.781c1.3164-10.773 9.9062-19.148 20.391-19.148 10.488 0 19.078 8.375 20.391 19.148zm-120.46-0.03125c-10.328-4.8555-20.754-19.867-18.219-31.223 2.3945-10.711 16.32-16.609 39.207-16.609 25.145 0 48.359 9.1758 62.008 24.059-7.5234 5.2617-12.688 13.895-13.516 23.805h-69.441c-0.015625-0.007812-0.023438-0.023437-0.039063-0.03125zm-27.828 10.105h98.414v35.355h-98.414zm15.777 45.434h82.637v100.04h-82.637zm-57.922 110.12h24.68v81.242h-24.68zm-20.152 91.316h140.12v78.09h-140.12zm382.89 78.09h-140.12v-78.09h140.12z"></path>

      </g>
      </svg>